<svg width="53" height="34" viewBox="0 0 53 34" fill="none" xmlns="http://www.w3.org/2000/svg">
<g clip-path="url(#clip0_6_12)">
<path d="M5.20371 12.5532C5.20371 12.4519 5.15115 12.4013 5.04602 12.4013H3.15376C3.04864 12.4013 2.99608 12.4519 2.99608 12.5532V22.0316C2.99608 22.1329 3.04864 22.1835 3.15376 22.1835H5.04602C5.15115 22.1835 5.20371 22.143 5.20371 22.062V12.5532ZM0 22.1835V12.4013C0 11.5506 0.273326 10.8722 0.819979 10.3658C1.36663 9.83924 2.08148 9.57595 2.96454 9.57595H5.23525C6.1183 9.57595 6.83316 9.83924 7.37981 10.3658C7.92646 10.8722 8.19979 11.5506 8.19979 12.4013V22.1835C8.19979 23.0342 7.92646 23.7228 7.37981 24.2494C6.83316 24.7557 6.1183 25.0089 5.23525 25.0089H2.96454C2.08148 25.0089 1.36663 24.7557 0.819979 24.2494C0.273326 23.7228 0 23.0342 0 22.1835Z" fill="white"/>
<path d="M17.6549 28.1835C17.6549 28.7709 17.5183 29.2873 17.2449 29.7329C16.9716 30.1785 16.5932 30.5025 16.1096 30.7051V30.8873H18.5064L17.8757 33.5H16.1096C15.2896 33.5 14.6168 33.2671 14.0912 32.8013C13.5866 32.3557 13.2922 31.7582 13.2081 31.0089H12.4197C11.5366 31.0089 10.8218 30.7557 10.2751 30.2494C9.72846 29.7228 9.45513 29.0342 9.45513 28.1835V12.3253C9.45513 11.4747 9.72846 10.7962 10.2751 10.2899C10.8218 9.76329 11.5366 9.5 12.4197 9.5H14.6904C15.5734 9.5 16.2883 9.76329 16.8349 10.2899C17.3816 10.7962 17.6549 11.4747 17.6549 12.3253V28.1835ZM12.6089 12.3253C12.5038 12.3253 12.4512 12.376 12.4512 12.4772V28.0316C12.4512 28.1329 12.5038 28.1835 12.6089 28.1835H14.5012C14.6063 28.1835 14.6588 28.1329 14.6588 28.0316V12.4772C14.6588 12.376 14.6063 12.3253 14.5012 12.3253H12.6089Z" fill="white"/>
<path d="M25.36 28.062V30.8873H23.5308C22.6477 30.8873 21.9329 30.6342 21.3862 30.1278C20.8396 29.6013 20.5662 28.9127 20.5662 28.062V18.5228H19.2417L19.494 15.6975H20.5662V12.4468H19.7778L20.0301 9.62152H23.5623V15.6975H25.36L25.1077 18.5228H23.5623V28.062H25.36Z" fill="white"/>
<path d="M31.3516 18.5532C31.3516 18.4519 31.2991 18.4013 31.1939 18.4013H29.3017C29.1966 18.4013 29.144 18.4519 29.144 18.5532V28.0316C29.144 28.1329 29.1966 28.1835 29.3017 28.1835H31.1939C31.2991 28.1835 31.3516 28.143 31.3516 28.062V18.5532ZM26.1479 28.1835V18.4013C26.1479 17.5506 26.4212 16.8722 26.9679 16.3658C27.5145 15.8392 28.2294 15.576 29.1124 15.576H31.3832C32.2662 15.576 32.9811 15.8392 33.5277 16.3658C34.0744 16.8722 34.3477 17.5506 34.3477 18.4013V28.1835C34.3477 29.0342 34.0744 29.7228 33.5277 30.2494C32.9811 30.7557 32.2662 31.0089 31.3832 31.0089H29.1124C28.2294 31.0089 27.5145 30.7557 26.9679 30.2494C26.4212 29.7228 26.1479 29.0342 26.1479 28.1835Z" fill="white"/>
<path d="M35.603 26.1177L38.5991 26.4215V27.9101C38.5991 28.0114 38.6517 28.062 38.7568 28.062H40.0183C40.1234 28.062 40.176 28.0114 40.176 27.9101V25.0848L37.3692 23.9304C37.0328 23.7886 36.6543 23.5658 36.2338 23.262C35.8133 22.9582 35.603 22.462 35.603 21.7734V18.4013C35.603 17.5506 35.8764 16.8722 36.423 16.3658C36.9697 15.8392 37.6845 15.576 38.5676 15.576H40.2075C41.0906 15.576 41.8055 15.8392 42.3521 16.3658C42.8988 16.8722 43.1721 17.5506 43.1721 18.4013V20.3456L40.176 20.0418V18.5532C40.176 18.4519 40.1234 18.4013 40.0183 18.4013H38.7568C38.6517 18.4013 38.5991 18.4519 38.5991 18.5532V21.3785L41.406 22.5329C41.7424 22.6747 42.1208 22.8975 42.5413 23.2013C42.9618 23.5051 43.1721 24.0013 43.1721 24.6899V28.062C43.1721 28.9127 42.8988 29.6013 42.3521 30.1278C41.8055 30.6342 41.0906 30.8873 40.2075 30.8873H38.5676C37.6845 30.8873 36.9697 30.6342 36.423 30.1278C35.8764 29.6013 35.603 28.9127 35.603 28.062V26.1177Z" fill="white"/>
<path d="M44.4218 30.8873V12.4468H43.6649L43.9802 9.62152H47.4178V16.8823L48.2063 15.6975H49.0578C50.0249 15.6975 50.7924 15.9608 51.36 16.4873C51.9487 17.0139 52.2431 17.6924 52.2431 18.5228V28.062H53L52.6846 30.8873H49.247V18.6747C49.247 18.5734 49.1945 18.5228 49.0893 18.5228H47.4178V30.8873H44.4218Z" fill="white"/>
<path d="M0 7.22H8L11.9688 1.5H13.5H14.9575L18.9462 7.22H26.4249V12.5H43" stroke="white" stroke-width="3"/>
</g>
<defs>
<clipPath id="clip0_6_12">
<rect width="53" height="33.5" fill="white"/>
</clipPath>
</defs>
</svg>
